<?xml version="1.0" encoding="UTF-8" standalone="no"?>
<!-- Created with Inkscape (http://www.inkscape.org/) -->

<svg
   width="256"
   height="256"
   viewBox="0 0 67.733331 67.733331"
   version="1.1"
   id="svg8"
   inkscape:version="1.2-beta (1b65182ce9, 2022-04-05)"
   sodipodi:docname="Icon.svg"
   xmlns:inkscape="http://www.inkscape.org/namespaces/inkscape"
   xmlns:sodipodi="http://sodipodi.sourceforge.net/DTD/sodipodi-0.dtd"
   xmlns:xlink="http://www.w3.org/1999/xlink"
   xmlns="http://www.w3.org/2000/svg"
   xmlns:svg="http://www.w3.org/2000/svg"
   xmlns:rdf="http://www.w3.org/1999/02/22-rdf-syntax-ns#"
   xmlns:cc="http://creativecommons.org/ns#"
   xmlns:dc="http://purl.org/dc/elements/1.1/">
  <defs
     id="defs2">
    <linearGradient
       id="linearGradient33464"
       inkscape:swatch="solid">
      <stop
         style="stop-color:#3f3f3f;stop-opacity:1;"
         offset="0"
         id="stop33462" />
    </linearGradient>
    <linearGradient
       id="linearGradient30544"
       inkscape:swatch="solid">
      <stop
         style="stop-color:#000000;stop-opacity:1;"
         offset="0"
         id="stop30542" />
    </linearGradient>
    <linearGradient
       id="linearGradient30538"
       inkscape:swatch="solid">
      <stop
         style="stop-color:#000000;stop-opacity:1;"
         offset="0"
         id="stop30536" />
    </linearGradient>
    <linearGradient
       id="linearGradient27492"
       inkscape:swatch="solid">
      <stop
         style="stop-color:#7b7b7b;stop-opacity:1;"
         offset="0"
         id="stop27490" />
    </linearGradient>
    <linearGradient
       id="linearGradient27486"
       inkscape:swatch="solid">
      <stop
         style="stop-color:#ffffff;stop-opacity:1;"
         offset="0"
         id="stop27484" />
    </linearGradient>
    <linearGradient
       id="linearGradient1164"
       gradientTransform="matrix(0,0,0,0,-72.178096,90.922457)"
       inkscape:swatch="solid">
      <stop
         style="stop-color:#7b7b7b;stop-opacity:1;"
         offset="0"
         id="stop1162" />
    </linearGradient>
    <linearGradient
       id="linearGradient1158"
       gradientTransform="matrix(0.00150687,0,0,0.00136017,30.034207,278.17726)"
       inkscape:swatch="solid">
      <stop
         style="stop-color:#bbbbbb;stop-opacity:1;"
         offset="0"
         id="stop1156" />
    </linearGradient>
    <linearGradient
       id="linearGradient1152"
       gradientTransform="matrix(6.5669121e-4,0,0,4.6264752e-4,-4.8251962,290.41195)"
       inkscape:swatch="solid">
      <stop
         style="stop-color:#d9d9d9;stop-opacity:1;"
         offset="0"
         id="stop1150" />
    </linearGradient>
    <linearGradient
       id="linearGradient1146"
       gradientTransform="matrix(0.07782545,0,0,0.05705119,-11.542622,289.96436)"
       inkscape:swatch="solid">
      <stop
         style="stop-color:#4795cc;stop-opacity:1;"
         offset="0"
         id="stop1144" />
    </linearGradient>
    <linearGradient
       id="linearGradient1140"
       gradientTransform="matrix(0.0088958,0,0,0.00761651,52.908139,237.65882)"
       inkscape:swatch="solid">
      <stop
         style="stop-color:#67b1e6;stop-opacity:1;"
         offset="0"
         id="stop1138" />
    </linearGradient>
    <linearGradient
       inkscape:collect="always"
       xlink:href="#linearGradient27486"
       id="linearGradient27488"
       x1="4.4516239"
       y1="263.5621"
       x2="62.859108"
       y2="263.5621"
       gradientUnits="userSpaceOnUse" />
    <linearGradient
       inkscape:collect="always"
       xlink:href="#linearGradient1152"
       id="linearGradient30540"
       x1="158.59395"
       y1="125.51145"
       x2="233.34525"
       y2="125.51145"
       gradientUnits="userSpaceOnUse" />
    <linearGradient
       inkscape:collect="always"
       xlink:href="#linearGradient1140"
       id="linearGradient30546"
       x1="26.263966"
       y1="121.97592"
       x2="155.56349"
       y2="121.97592"
       gradientUnits="userSpaceOnUse" />
    <linearGradient
       inkscape:collect="always"
       xlink:href="#linearGradient27492"
       id="linearGradient33466"
       x1="158.59395"
       y1="125.51145"
       x2="233.34525"
       y2="125.51145"
       gradientUnits="userSpaceOnUse" />
  </defs>
  <sodipodi:namedview
     id="base"
     pagecolor="#ffffff"
     bordercolor="#666666"
     borderopacity="1.0"
     inkscape:pageopacity="0.0"
     inkscape:pageshadow="2"
     inkscape:zoom="2.2095652"
     inkscape:cx="67.886658"
     inkscape:cy="137.13105"
     inkscape:document-units="px"
     inkscape:current-layer="layer5"
     showgrid="false"
     units="px"
     showguides="true"
     inkscape:guide-bbox="true"
     inkscape:window-width="1920"
     inkscape:window-height="1001"
     inkscape:window-x="-7"
     inkscape:window-y="-7"
     inkscape:window-maximized="1"
     inkscape:pagecheckerboard="0"
     inkscape:deskcolor="#d1d1d1" />
  <metadata
     id="metadata5">
    <rdf:RDF>
      <cc:Work
         rdf:about="">
        <dc:format>image/svg+xml</dc:format>
        <dc:type
           rdf:resource="http://purl.org/dc/dcmitype/StillImage" />
        <dc:title />
      </cc:Work>
    </rdf:RDF>
  </metadata>
  <g
     inkscape:groupmode="layer"
     id="layer2"
     inkscape:label="Layer 2"
     style="display:none">
    <path
       id="path5546"
       style="fill:none;stroke:#3f3f3f;stroke-width:5.29167;stroke-linecap:butt;stroke-linejoin:round;stroke-miterlimit:4;stroke-dasharray:none;stroke-opacity:1"
       d="M 22.078252,5.206427 47.03629,7.7655927 62.32995,5.206427 62.280133,58.308763 46.936663,63.384423 22.028438,59.417753 21.856232,52.704548 5.1475494,48.521908 4.980794,17.540912 l 16.83586,0.930924 z"
       sodipodi:nodetypes="ccccccccccc" />
  </g>
  <g
     inkscape:label="Layer 1"
     inkscape:groupmode="layer"
     id="layer1"
     transform="translate(0,-229.26667)"
     style="display:none">
    <path
       style="fill:url(#linearGradient1140);fill-opacity:1;stroke:url(#linearGradient1164);stroke-width:0.138286;stroke-miterlimit:4;stroke-dasharray:none;stroke-opacity:0"
       d="m 17.157009,280.58749 c -6.503183,-1.59125 -11.8300162,-2.89925 -11.8374101,-2.90666 -0.021837,-0.0219 -0.181022,-30.66903 -0.1593988,-30.68754 0.010843,-0.009 4.5455425,0.66595 10.0770579,1.50059 13.386412,2.01983 13.92582,2.10181 13.93553,2.11791 0.0077,0.0128 -0.100254,31.24362 -0.111923,32.37645 -0.0028,0.27565 -0.02198,0.49921 -0.04253,0.4968 -0.02056,-0.002 -5.358148,-1.30628 -11.861331,-2.89755 z"
       id="path1206"
       inkscape:connector-curvature="0" />
    <path
       style="fill:url(#linearGradient1152);fill-opacity:1;stroke:url(#linearGradient1164);stroke-width:0.138286;stroke-miterlimit:4;stroke-dasharray:none;stroke-opacity:0"
       d="m 34.435878,290.52323 c -6.726465,-1.07533 -12.235544,-1.95581 -12.242393,-1.95665 -0.0068,-9.5e-4 -0.01245,-1.4575 -0.01245,-3.23703 v -3.2355 l 3.589381,0.87788 c 2.444097,0.59776 3.600472,0.86278 3.624145,0.83058 0.02939,-0.04 17.284645,-6.19915 17.367235,-6.19915 0.0157,0 0.02856,3.34929 0.02856,7.44286 0,5.92872 -0.01266,7.44177 -0.06227,7.43749 -0.03425,-0.003 -5.565744,-0.88516 -12.292212,-1.96048 z"
       id="path1210"
       inkscape:connector-curvature="0" />
    <path
       style="fill:url(#linearGradient1146);fill-opacity:1;stroke:url(#linearGradient1164);stroke-width:0.138286;stroke-miterlimit:4;stroke-dasharray:none;stroke-opacity:0"
       d="m 29.398451,281.5415 c -8.38e-4,-4.183 0.110348,-30.87084 0.128536,-30.88673 0.02227,-0.0195 17.37187,1.32003 17.402112,1.34355 0.01808,0.014 -0.143132,25.2813 -0.161391,25.29416 -0.02235,0.0158 -17.321024,6.15772 -17.343039,6.15772 -0.01423,0 -0.02603,-0.85891 -0.02622,-1.9087 z"
       id="path1215"
       inkscape:connector-curvature="0" />
    <path
       style="fill:url(#linearGradient1158);fill-opacity:1;stroke:url(#linearGradient1164);stroke-width:0.134689;stroke-miterlimit:4;stroke-dasharray:none;stroke-opacity:0"
       d="m 47.861662,285.42869 c 5.29e-4,-3.86757 0.04117,-13.13589 0.09032,-20.59623 0.06833,-10.37198 0.08045,-15.22565 0.05147,-20.62366 -0.02085,-3.88265 -0.03492,-7.06145 -0.03125,-7.06398 0.03152,-0.0218 14.170485,-2.49516 14.185577,-2.48155 0.01095,0.01 0.0061,11.89971 -0.01084,26.42186 l -0.03073,26.40387 -0.382021,0.13056 c -0.302299,0.1033 -13.587352,4.73855 -13.814381,4.81994 -0.04711,0.0169 -0.05888,-1.4021 -0.05812,-7.01081 z"
       id="path1217"
       inkscape:connector-curvature="0" />
    <path
       id="path1219"
       style="fill:none;stroke:url(#linearGradient27488);stroke-width:1.5875;stroke-linecap:butt;stroke-linejoin:round;stroke-miterlimit:4;stroke-dasharray:none;stroke-opacity:1"
       d="m 21.978617,247.61007 25.131777,4.25317 -0.173729,25.51827 m -17.707819,6.29559 17.70782,-6.29559 -1e-6,15.26959 -24.908227,-3.96668 -8e-6,-6.78175 m 25.007862,-44.8704 0.0741,14.83097 -17.768464,-1.37784 m -24.361138,-3.67782 24.361139,3.6778 -0.113088,33.19171 -24.0812956,-5.8885 z m -3.4e-6,2e-5 16.9978264,0.80247 0.09963,-13.13697 24.958038,2.55917 15.29366,-2.55917 -0.04982,53.10234 -15.343472,5.07566"
       inkscape:connector-curvature="0"
       sodipodi:nodetypes="ccccccccccccccccccccccc" />
    <path
       style="fill:url(#linearGradient1146);fill-opacity:1;stroke:url(#linearGradient1164);stroke-width:0.138286;stroke-miterlimit:4;stroke-dasharray:none;stroke-opacity:0"
       d="m 43.335165,251.43705 c -0.0069,-0.006 -0.208798,-0.023 -0.448486,-0.0388 -0.239691,-0.016 -0.497491,-0.0352 -0.572893,-0.0431 -0.0754,-0.008 -0.316427,-0.0269 -0.53562,-0.0423 -0.219192,-0.0154 -0.476992,-0.0352 -0.572889,-0.0441 -0.09589,-0.009 -0.33128,-0.0275 -0.523073,-0.0415 -0.654954,-0.0478 -0.846985,-0.0622 -1.145777,-0.0856 -0.328199,-0.0257 -0.705747,-0.0551 -1.108457,-0.0863 -0.14387,-0.0112 -0.39046,-0.0304 -0.547983,-0.0427 -0.157521,-0.0124 -0.39849,-0.031 -0.535484,-0.0416 -0.136998,-0.0106 -0.378001,-0.0294 -0.535568,-0.0416 -0.157569,-0.0124 -0.409781,-0.0319 -0.560478,-0.0437 l -0.547981,-0.0427 -0.547979,-0.0427 c -0.250635,-0.0195 -0.418386,-0.0329 -1.070972,-0.0857 -0.338254,-0.0274 -0.807641,-0.0633 -1.156908,-0.0884 -0.426996,-0.0308 -0.713639,-0.0532 -1.019273,-0.0798 -0.142035,-0.0124 -0.399837,-0.0325 -0.572889,-0.0447 -0.173054,-0.0123 -0.41552,-0.0312 -0.538817,-0.042 -0.123295,-0.0109 -0.381096,-0.0313 -0.572889,-0.0456 -0.745107,-0.0556 -0.781158,-0.0594 -1.220503,-0.12763 -0.09589,-0.0149 -0.230401,-0.0349 -0.298899,-0.0446 -0.06849,-0.01 -0.180584,-0.0263 -0.249081,-0.0369 -0.0685,-0.0107 -0.203002,-0.0302 -0.298899,-0.0435 -0.182415,-0.0254 -0.404013,-0.0591 -0.572888,-0.0871 -0.05479,-0.009 -0.178097,-0.0275 -0.273992,-0.0408 -0.182413,-0.0254 -0.404014,-0.0591 -0.57289,-0.0872 -0.05479,-0.009 -0.172524,-0.0269 -0.261615,-0.0395 -0.201836,-0.0285 -0.454437,-0.0668 -0.585263,-0.0884 -0.05479,-0.009 -0.172525,-0.0268 -0.261618,-0.0395 -0.201834,-0.0285 -0.454434,-0.0668 -0.585264,-0.0884 -0.05479,-0.009 -0.172524,-0.0269 -0.261615,-0.0395 -0.201833,-0.0285 -0.454437,-0.0668 -0.585263,-0.0884 -0.05479,-0.009 -0.172526,-0.0268 -0.261615,-0.0395 -0.201835,-0.0285 -0.454438,-0.0668 -0.585265,-0.0884 -0.05479,-0.009 -0.172524,-0.0269 -0.261615,-0.0395 -0.0891,-0.0127 -0.234803,-0.0341 -0.323807,-0.0476 -0.089,-0.0136 -0.217868,-0.0324 -0.286366,-0.0418 -0.0685,-0.009 -0.180585,-0.0263 -0.249082,-0.0376 -0.06849,-0.0114 -0.214212,-0.0325 -0.323807,-0.047 -0.193732,-0.0257 -0.303957,-0.0427 -0.535527,-0.0823 -0.06165,-0.0106 -0.201756,-0.031 -0.311354,-0.0457 -0.220874,-0.0294 -0.397381,-0.0563 -0.547979,-0.0835 -0.05479,-0.01 -0.189304,-0.0299 -0.2989,-0.0445 -0.220875,-0.0295 -0.397382,-0.0563 -0.54798,-0.0835 -0.05479,-0.01 -0.189304,-0.03 -0.2989,-0.0445 -0.220875,-0.0294 -0.397381,-0.0563 -0.54798,-0.0835 -0.05479,-0.01 -0.189303,-0.03 -0.2989,-0.0445 -0.220875,-0.0294 -0.397381,-0.0563 -0.54798,-0.0834 -0.05479,-0.01 -0.189303,-0.0299 -0.298899,-0.0445 -0.193732,-0.0258 -0.303956,-0.0427 -0.535526,-0.0823 -0.06166,-0.0106 -0.201758,-0.031 -0.311354,-0.0456 -0.10959,-0.0147 -0.244101,-0.0342 -0.298899,-0.0437 -0.217701,-0.0374 -0.357387,-0.0589 -0.547981,-0.0843 -0.194308,-0.0259 -0.306581,-0.0431 -0.535526,-0.0823 -0.13515,-0.0232 -0.414659,-0.0656 -0.585344,-0.089 -0.06849,-0.009 -0.180584,-0.0263 -0.249082,-0.0376 -0.178089,-0.0294 -0.452807,-0.072 -0.597798,-0.0923 -0.06849,-0.01 -0.180584,-0.0263 -0.249081,-0.0369 -0.06849,-0.0107 -0.203003,-0.0316 -0.2989,-0.0464 -0.09589,-0.0149 -0.230401,-0.035 -0.298899,-0.0445 -0.0685,-0.01 -0.191793,-0.0286 -0.27399,-0.0422 -0.0822,-0.0137 -0.216702,-0.034 -0.298898,-0.0455 -0.0822,-0.0115 -0.216702,-0.0307 -0.298899,-0.0426 -0.0822,-0.012 -0.194285,-0.0275 -0.249083,-0.0344 -0.05479,-0.007 -0.133258,-0.0232 -0.174356,-0.0359 -0.04109,-0.0127 -0.108355,-0.0252 -0.149451,-0.0276 -0.163669,-0.01 -0.328166,-0.036 -0.410985,-0.0658 -0.04795,-0.0172 -0.120087,-0.0206 -0.160309,-0.007 -0.04022,0.0132 -0.08758,0.004 -0.105253,-0.0205 -0.01768,-0.0245 -0.07441,-0.035 -0.126087,-0.0235 -0.05168,0.0116 -0.107329,0.003 -0.123676,-0.0201 -0.01634,-0.0227 -0.07801,-0.0372 -0.137045,-0.0323 -0.05902,0.005 -0.14656,-0.006 -0.194509,-0.0234 -0.04795,-0.0177 -0.120804,-0.0212 -0.161903,-0.008 -0.04109,0.0136 -0.07473,0.005 -0.07473,-0.0198 0,-0.0243 -0.05044,-0.0401 -0.112085,-0.0349 -0.06166,0.005 -0.1513172,-0.005 -0.1992657,-0.0229 -0.047954,-0.0177 -0.1208051,-0.0212 -0.1619041,-0.008 -0.041093,0.0135 -0.074714,0.004 -0.074714,-0.0216 0,-0.0271 -0.06196,-0.0384 -0.1494501,-0.0274 -0.082196,0.0104 -0.1494491,6.7e-4 -0.1494491,-0.0215 0,-0.0221 -0.056046,-0.031 -0.1245409,-0.0199 -0.068495,0.0113 -0.1245419,0.002 -0.1245419,-0.0212 0,-0.0229 -0.067243,-0.0332 -0.149448,-0.0228 -0.082196,0.0104 -0.1494501,0.003 -0.1494501,-0.0165 0,-0.0194 -0.061655,-0.0381 -0.1369949,-0.0416 -0.075345,-0.003 -0.00242,-0.0192 0.1619031,-0.0349 0.164395,-0.0158 0.3661512,-0.0124 0.4483482,0.008 0.082196,0.02 0.3063716,0.0347 0.4981656,0.0326 0.1917929,-0.002 0.5504709,0.007 0.7970629,0.019 0.246591,0.0126 0.672521,0.0323 0.946512,0.0439 0.903365,0.0383 1.488704,0.0646 1.917933,0.0861 0.446372,0.0224 0.978551,0.0468 1.843209,0.0847 0.521226,0.0228 1.133592,0.052 1.843209,0.088 0.205492,0.0105 0.609006,0.0294 0.896696,0.042 0.28769,0.0127 0.691204,0.0318 0.896696,0.0427 0.205493,0.0109 0.597798,0.0299 0.871788,0.0423 0.27399,0.0125 0.677504,0.0322 0.896697,0.0438 0.219192,0.0118 0.600288,0.0301 0.84688,0.0409 0.312477,0.0138 2.780787,0.41479 8.144989,1.32343 4.233154,0.71704 9.120148,1.54363 10.859986,1.83683 1.739841,0.29321 3.185764,0.5406 3.213162,0.54976 0.0274,0.009 -0.05655,0.0149 -0.186577,0.0128 -0.130018,-0.002 -0.242103,-0.008 -0.249083,-0.0139 z"
       id="path1222"
       inkscape:connector-curvature="0" />
    <path
       style="display:inline;fill:url(#linearGradient1152);fill-opacity:1;stroke:url(#linearGradient1164);stroke-width:0.135584;stroke-miterlimit:4;stroke-dasharray:none;stroke-opacity:0"
       d="m 34.529872,249.01731 c -6.699901,-1.09129 -12.234302,-1.99402 -12.298666,-2.00606 l -0.117027,-0.0219 0.02994,-1.40233 c 0.01646,-0.77126 0.04383,-3.55317 0.0608,-6.18198 l 0.03083,-4.77969 0.106058,0.0132 c 0.05834,0.008 5.587795,0.5511 12.287696,1.20858 6.699903,0.65747 12.196602,1.20662 12.214888,1.22033 0.01827,0.0137 0.04952,3.15653 0.06944,6.98404 l 0.03618,6.95911 -0.119255,-0.005 c -0.06559,-0.003 -5.600994,-0.89743 -12.300894,-1.98872 z"
       id="path1224"
       inkscape:connector-curvature="0" />
  </g>
  <g
     inkscape:groupmode="layer"
     id="layer4"
     inkscape:label="Layer 3">
    <path
       id="path30461"
       style="fill:none;stroke:#3f3f3f;stroke-width:2.64583324;stroke-linejoin:round;stroke-dasharray:none;stroke-opacity:1;paint-order:stroke markers fill"
       d="M 6.548103,60.536545 V 4.0090427 l 35.012306,6.9490073 0,42.571291 z"
       sodipodi:nodetypes="ccccc" />
  </g>
  <g
     inkscape:groupmode="layer"
     id="layer5"
     inkscape:label="Layer 4"
     style="display:inline">
    <path
       style="display:inline;fill:url(#linearGradient30540);fill-opacity:1;stroke:url(#linearGradient33466);stroke-width:10.00000016;stroke-linejoin:round;stroke-dasharray:none;stroke-opacity:1;paint-order:stroke markers fill"
       d="M 160.10918,125.51145 V 13.384521 h 35.86041 35.86042 V 125.51145 237.63838 h -35.86042 -35.86041 z"
       id="path30532"
       transform="scale(0.26458332)" />
    <path
       style="fill:url(#linearGradient30546);fill-opacity:1.0;stroke:none;stroke-width:3.03046;stroke-linejoin:round;stroke-dasharray:none;stroke-opacity:1;paint-order:stroke markers fill"
       d="m 27.779195,121.97592 c 0,-97.957923 0.04411,-103.090438 0.883883,-102.839279 0.486136,0.145393 28.498929,5.739657 62.25065,12.431696 33.751722,6.692039 61.764512,12.285821 62.250652,12.430626 0.83682,0.249265 0.88388,4.400949 0.88388,77.976957 0,73.576 -0.0471,77.72769 -0.88388,77.97696 -0.48614,0.1448 -28.49893,5.73858 -62.250652,12.43062 -33.751721,6.69204 -61.764514,12.2863 -62.25065,12.4317 -0.83977,0.25115 -0.883883,-4.88136 -0.883883,-102.83928 z"
       id="path30534"
       transform="scale(0.26458332)" />
  </g>
</svg>
